<svg xmlns="http://www.w3.org/2000/svg" viewBox="0 0 64 64"><g id="_25-price" data-name="25-price"><path d="M17,1V7a2.006,2.006,0,0,1-2,2H9Z" style="fill:#afb4c8"/><path d="M55,5V59a4,4,0,0,1-4,4H13a4,4,0,0,1-4-4V9h6a2.006,2.006,0,0,0,2-2V1H51A4,4,0,0,1,55,5Z" style="fill:#f2f6fc"/><path d="M42,29H22V18.594l-2,1.09V13.406l2-1.09V7h6V9.044l4-2.183,12,6.545v6.278l-2-1.09Z" style="fill:#9c9c9c"/><rect x="26" y="20" width="4" height="8" style="fill:#b2876d"/><rect x="28" y="20" width="2" height="8" style="fill:#966857"/><polygon points="27 8 27 10.73 23 12.91 23 8 27 8" style="fill:#966857"/><polygon points="25 8 23 8 23 12.91 25 11.82 25 8" style="fill:#b2876d"/><rect x="33" y="20" width="5" height="4" style="fill:#a3d4ff"/><rect x="33" y="22" width="5" height="2" style="fill:#65b1fc"/><path d="M38,20H33v4h5Zm3-3.09V28H30V20H26v8H23V16.91L32,12Z" style="fill:#f7f7f7"/><polygon points="32 12 23 16.91 23 18.91 32 14 41 18.91 41 16.91 32 12" style="fill:#cfcfcf"/><polygon points="27 10.73 32 8 43 14 43 18 41 16.91 32 12 23 16.91 21 18 21 14 23 12.91 27 10.73" style="fill:#ff936b"/><polygon points="32 10 23 14.91 21 16 21 18 23 16.91 32 12 41 16.91 43 18 43 16 41 14.91 32 10" style="fill:#ff7045"/><rect x="12" y="57" width="18" height="2" style="fill:#9c9c9c"/><rect x="15" y="34" width="2" height="2" style="fill:#9c9c9c"/><rect x="19" y="34" width="30" height="2" style="fill:#9c9c9c"/><rect x="15" y="38" width="30" height="2" style="fill:#9c9c9c"/><rect x="12" y="53" width="2" height="2" style="fill:#9c9c9c"/><path d="M30,55H28a1,1,0,0,1-.707-.293L25,52.414l-1.293,1.293a1,1,0,0,1-1.414,0L21,52.414l-2.293,2.293A1,1,0,0,1,18,55H16V53h1.586l2.707-2.707a1,1,0,0,1,1.414,0L23,51.586l1.293-1.293a1,1,0,0,1,1.414,0L28.414,53H30Z" style="fill:#9c9c9c"/><rect x="15" y="42" width="26" height="2" style="fill:#9c9c9c"/><rect x="39" y="57" width="13" height="2" style="fill:#9c9c9c"/><rect x="41" y="54" width="7" height="6" style="fill:#f2f6fc"/><rect x="52" y="54" width="7" height="6" style="fill:#ff936b"/><polygon points="56 54 56 57 52 57 52 60 59 60 59 54 56 54" style="fill:#ff7045"/><rect x="52" y="44" width="7" height="6" style="fill:#f2f6fc"/><rect x="41" y="44" width="7" height="6" style="fill:#f2f6fc"/><rect x="41" y="36" width="18" height="4" style="fill:#a3d4ff"/><rect x="41" y="38" width="18" height="2" style="fill:#4a98f7"/><path d="M63,35V61a2.006,2.006,0,0,1-2,2H39a2.006,2.006,0,0,1-2-2V35a2.006,2.006,0,0,1,2-2H61A2.006,2.006,0,0,1,63,35ZM59,60V54H52v6Zm0-10V44H52v6Zm0-10V36H41v4ZM48,60V54H41v6Zm0-10V44H41v6Z" style="fill:#d2eb5a"/><polygon points="56 44 56 47 52 47 52 50 59 50 59 44 56 44" style="fill:#dce1eb"/><polygon points="45 54 45 57 41 57 41 60 48 60 48 54 45 54" style="fill:#dce1eb"/><polygon points="45 44 45 47 41 47 41 50 48 50 48 44 45 44" style="fill:#dce1eb"/><path d="M40,61V35a2.006,2.006,0,0,1,2-2H39a2.006,2.006,0,0,0-2,2V61a2.006,2.006,0,0,0,2,2h3A2.006,2.006,0,0,1,40,61Z" style="fill:#b4d241"/><path d="M61,33H58a2.006,2.006,0,0,1,2,2V61a2.006,2.006,0,0,1-2,2h3a2.006,2.006,0,0,0,2-2V35A2.006,2.006,0,0,0,61,33Z" style="fill:#b4d241"/><path d="M10,59V10h5a3,3,0,0,0,3-3V2H51a3,3,0,0,1,3,3V30h2V5a5.006,5.006,0,0,0-5-5H17a1,1,0,0,0-.707.293l-8,8A1,1,0,0,0,8,9V59a5.006,5.006,0,0,0,5,5H34V62H13A3,3,0,0,1,10,59ZM16,3.414V7a1,1,0,0,1-1,1H11.414Z"/><rect x="15" y="34" width="2" height="2"/><rect x="19" y="34" width="15" height="2"/><rect x="15" y="38" width="19" height="2"/><rect x="15" y="42" width="19" height="2"/><path d="M23,29H41a1,1,0,0,0,1-1V18.594l.521.284A1,1,0,0,0,44,18V14a1,1,0,0,0-.521-.878l-11-6a1,1,0,0,0-.958,0L28,9.043V8a1,1,0,0,0-1-1H23a1,1,0,0,0-1,1v4.315l-1.479.807A1,1,0,0,0,20,14v4a1,1,0,0,0,1.479.878L22,18.594V28A1,1,0,0,0,23,29Zm4-2V21h2v6Zm13,0H31V20a1,1,0,0,0-1-1H26a1,1,0,0,0-1,1v7H24V17.5l8-4.364L40,17.5ZM24,9h2v1.134l-2,1.09Zm-2,5.594L32,9.139l10,5.455v1.721l-9.521-5.193a1,1,0,0,0-.958,0L22,16.315Z"/><path d="M32,24a1,1,0,0,0,1,1h5a1,1,0,0,0,1-1V20a1,1,0,0,0-1-1H33a1,1,0,0,0-1,1Zm2-3h3v2H34Z"/><path d="M61,32H39a3,3,0,0,0-3,3V61a3,3,0,0,0,3,3H61a3,3,0,0,0,3-3V35A3,3,0,0,0,61,32Zm1,29a1,1,0,0,1-1,1H39a1,1,0,0,1-1-1V35a1,1,0,0,1,1-1H61a1,1,0,0,1,1,1Z"/><path d="M59,35H41a1,1,0,0,0-1,1v4a1,1,0,0,0,1,1H59a1,1,0,0,0,1-1V36A1,1,0,0,0,59,35Zm-1,4H42V37H58Z"/><path d="M48,43H41a1,1,0,0,0-1,1v6a1,1,0,0,0,1,1h7a1,1,0,0,0,1-1V44A1,1,0,0,0,48,43Zm-1,6H42V45h5Z"/><path d="M59,43H52a1,1,0,0,0-1,1v6a1,1,0,0,0,1,1h7a1,1,0,0,0,1-1V44A1,1,0,0,0,59,43Zm-1,6H53V45h5Z"/><path d="M48,53H41a1,1,0,0,0-1,1v6a1,1,0,0,0,1,1h7a1,1,0,0,0,1-1V54A1,1,0,0,0,48,53Zm-1,6H42V55h5Z"/><path d="M59,53H52a1,1,0,0,0-1,1v6a1,1,0,0,0,1,1h7a1,1,0,0,0,1-1V54A1,1,0,0,0,59,53Zm-1,6H53V55h5Z"/><rect x="12" y="57" width="18" height="2"/><rect x="12" y="53" width="2" height="2"/><path d="M21,52.414l1.293,1.293a1,1,0,0,0,1.414,0L25,52.414l2.293,2.293A1,1,0,0,0,28,55h2V53H28.414l-2.707-2.707a1,1,0,0,0-1.414,0L23,51.586l-1.293-1.293a1,1,0,0,0-1.414,0L17.586,53H16v2h2a1,1,0,0,0,.707-.293Z"/></g></svg>