<svg xmlns="http://www.w3.org/2000/svg" viewBox="0 0 64 64"><g id="_19-browser" data-name="19-browser"><path d="M63,5V9H1V5A4,4,0,0,1,5,1H59A4,4,0,0,1,63,5Z" style="fill:#ff936b"/><path d="M63,9V59a4,4,0,0,1-4,4H5a4,4,0,0,1-4-4V9Z" style="fill:#f2f6fc"/><path d="M59,1H54a4,4,0,0,1,4,4V9h5V5A4,4,0,0,0,59,1Z" style="fill:#ff7045"/><path d="M58,9V59a4,4,0,0,1-4,4h5a4,4,0,0,0,4-4V9Z" style="fill:#e9edf5"/><path d="M5,1h5A4,4,0,0,0,6,5V9H1V5A4,4,0,0,1,5,1Z" style="fill:#ff7045"/><path d="M6,9V59a4,4,0,0,0,4,4H5a4,4,0,0,1-4-4V9Z" style="fill:#e9edf5"/><path d="M28,39H8V28.594l-2,1.09V23.406l2-1.09V17h6v2.044l4-2.183,12,6.545v6.278l-2-1.09Z" style="fill:#9c9c9c"/><rect x="38" y="44" width="20" height="6" rx="2" ry="2" style="fill:#d2eb5a"/><rect x="8" y="44" width="20" height="6" rx="2" ry="2" style="fill:#65b1fc"/><path d="M56,47H40a2,2,0,0,1-1.929-1.5A1.966,1.966,0,0,0,38,46v2a2,2,0,0,0,2,2H56a2,2,0,0,0,2-2V46a1.966,1.966,0,0,0-.071-.5A2,2,0,0,1,56,47Z" style="fill:#b4d241"/><path d="M26,47H10a2,2,0,0,1-1.929-1.5A1.966,1.966,0,0,0,8,46v2a2,2,0,0,0,2,2H26a2,2,0,0,0,2-2V46a1.966,1.966,0,0,0-.071-.5A2,2,0,0,1,26,47Z" style="fill:#4a98f7"/><polygon points="56 18 56 22 52 22 48 22 44 22 40 22 40 18 56 18" style="fill:#cfcfcf"/><rect x="52" y="22" width="4" height="16" style="fill:#4a98f7"/><rect x="44" y="22" width="4" height="16" style="fill:#4a98f7"/><rect x="48" y="22" width="4" height="16" style="fill:#65b1fc"/><rect x="40" y="22" width="4" height="16" style="fill:#65b1fc"/><polygon points="45 47 45 54 47 52 51 56 54 53 50 49 52 47 45 47" style="fill:#cfcfcf"/><rect x="12" y="30" width="4" height="8" style="fill:#b2876d"/><rect x="14" y="30" width="2" height="8" style="fill:#966857"/><polygon points="13 18 13 20.73 9 22.91 9 18 13 18" style="fill:#966857"/><polygon points="11 18 9 18 9 22.91 11 21.82 11 18" style="fill:#b2876d"/><rect x="19" y="30" width="5" height="4" style="fill:#a3d4ff"/><rect x="19" y="32" width="5" height="2" style="fill:#65b1fc"/><path d="M24,30H19v4h5Zm3-3.09V38H16V30H12v8H9V26.91L18,22Z" style="fill:#f7f7f7"/><polygon points="18 22 9 26.91 9 28.91 18 24 27 28.91 27 26.91 18 22" style="fill:#cfcfcf"/><polygon points="13 20.73 18 18 29 24 29 28 27 26.91 18 22 9 26.91 7 28 7 24 9 22.91 13 20.73" style="fill:#ff936b"/><polygon points="18 20 9 24.91 7 26 7 28 9 26.91 18 22 27 26.91 29 28 29 26 27 24.91 18 20" style="fill:#ff7045"/><path d="M59,0H5A5.006,5.006,0,0,0,0,5V59a5.006,5.006,0,0,0,5,5H59a5.006,5.006,0,0,0,5-5V5A5.006,5.006,0,0,0,59,0ZM5,2H59a3,3,0,0,1,3,3V8H2V5A3,3,0,0,1,5,2ZM59,62H5a3,3,0,0,1-3-3V10H62V59A3,3,0,0,1,59,62Z"/><rect x="4" y="4" width="2" height="2"/><rect x="8" y="4" width="2" height="2"/><rect x="12" y="4" width="2" height="2"/><path d="M40,39H56a1,1,0,0,0,1-1V18a1,1,0,0,0-1-1H40a1,1,0,0,0-1,1V38A1,1,0,0,0,40,39Zm1-16h2V37H41Zm10,0V37H49V23ZM47,37H45V23h2Zm6,0V23h2V37Zm2-18v2H41V19Z"/><path d="M26,43H10a3,3,0,0,0-3,3v2a3,3,0,0,0,3,3H26a3,3,0,0,0,3-3V46A3,3,0,0,0,26,43Zm1,5a1,1,0,0,1-1,1H10a1,1,0,0,1-1-1V46a1,1,0,0,1,1-1H26a1,1,0,0,1,1,1Z"/><path d="M56,43H40a3,3,0,0,0-3,3v2a3,3,0,0,0,3,3h3V49H40a1,1,0,0,1-1-1V46a1,1,0,0,1,1-1H56a1,1,0,0,1,1,1v2a1,1,0,0,1-1,1v2a3,3,0,0,0,3-3V46A3,3,0,0,0,56,43Z"/><path d="M51.414,49l1.293-1.293A1,1,0,0,0,52,46H45a1,1,0,0,0-1,1v7a1,1,0,0,0,1.707.707L47,53.414l3.293,3.293a1,1,0,0,0,1.414,0l3-3a1,1,0,0,0,0-1.414ZM51,54.586l-3.293-3.293a1,1,0,0,0-1.414,0L46,51.586V48h3.586l-.293.293a1,1,0,0,0,0,1.414L52.586,53Z"/><path d="M29.479,23.122l-11-6a1,1,0,0,0-.958,0L14,19.043V18a1,1,0,0,0-1-1H9a1,1,0,0,0-1,1v4.315l-1.479.807A1,1,0,0,0,6,24v4a1,1,0,0,0,1.479.878L8,28.594V38a1,1,0,0,0,1,1H27a1,1,0,0,0,1-1V28.594l.521.284A1,1,0,0,0,30,28V24A1,1,0,0,0,29.479,23.122ZM10,19h2v1.134l-2,1.09Zm3,18V31h2v6Zm13,0H17V30a1,1,0,0,0-1-1H12a1,1,0,0,0-1,1v7H10V27.5l8-4.364L26,27.5Zm2-10.685-9.521-5.193a1,1,0,0,0-.958,0L8,26.315V24.594l10-5.455,10,5.455Z"/><path d="M18,34a1,1,0,0,0,1,1h5a1,1,0,0,0,1-1V30a1,1,0,0,0-1-1H19a1,1,0,0,0-1,1Zm2-3h3v2H20Z"/></g></svg>