<?xml version="1.0" encoding="utf-8"?>
<!-- Generator: Adobe Illustrator 24.0.0, SVG Export Plug-In . SVG Version: 6.00 Build 0)  -->
<svg version="1.1" xmlns="http://www.w3.org/2000/svg" xmlns:xlink="http://www.w3.org/1999/xlink" x="0px" y="0px"
	 viewBox="0 0 256 256" style="enable-background:new 0 0 256 256;" xml:space="preserve">
<style type="text/css">
	.st0{fill:#F98FA6;}
	.st1{fill:#FC657E;}
	.st2{fill:#DAE6F1;}
	.st3{fill:#5290DB;}
	.st4{fill:#FCDD86;}
	.st5{fill:#F5C84C;}
	.st6{fill:#87D147;}
	.st7{fill:#70D6F9;}
	.st8{fill:#EDF4FC;}
	.st9{fill:#9BE5F9;}
	.st10{fill:#B2E26D;}
	.st11{fill:#F9C1A8;}
	.st12{fill:#414344;}
	.st13{fill:#E1FBFF;}
	.st14{fill:#FFE3EC;}
	.st15{fill:#FCBECF;}
	.st16{fill:#EF4460;}
	.st17{fill:#80C2F9;}
	.st18{fill:#3A70BF;}
	.st19{fill:#FCA265;}
	.st20{fill:#5B5D60;}
	.st21{fill:#818182;}
	.st22{fill:#C7D7E5;}
	.st23{fill:#F9D0B4;}
	.st24{fill:#AA6F59;}
	.st25{fill:#D1856D;}
	.st26{fill:#FCC29A;}
	.st27{fill:#29589F;}
	.st28{fill:#F7B386;}
	.st29{fill:#FC8C48;}
	.st30{fill:#FFF0CC;}
	.st31{fill:#57AF12;}
	.st32{fill:#3CAADC;}
	.st33{fill:#EDB311;}
	.st34{fill:#231F20;}
</style>
<g id="Layer_1">
</g>
<g id="Layer_2">
</g>
<g id="Layer_3">
</g>
<g id="Layer_4">
</g>
<g id="Layer_5">
</g>
<g id="Layer_6">
</g>
<g id="Layer_7">
</g>
<g id="Layer_8">
</g>
<g id="Layer_9">
</g>
<g id="Layer_10">
</g>
<g id="Layer_11">
</g>
<g id="Layer_12">
</g>
<g id="Layer_13">
</g>
<g id="Layer_14">
</g>
<g id="Layer_15">
</g>
<g id="Layer_16">
</g>
<g id="Layer_17">
</g>
<g id="Layer_18">
</g>
<g id="Layer_19">
</g>
<g id="Layer_20">
</g>
<g id="Layer_21">
</g>
<g id="Layer_22">
</g>
<g id="Layer_23">
</g>
<g id="Layer_24">
</g>
<g id="Layer_25">
</g>
<g id="Layer_26">
</g>
<g id="Layer_27">
</g>
<g id="Layer_28">
</g>
<g id="Layer_29">
</g>
<g id="Layer_30">
</g>
<g id="Layer_31">
</g>
<g id="Layer_32">
</g>
<g id="Layer_33">
</g>
<g id="Layer_34">
</g>
<g id="Layer_35">
</g>
<g id="Layer_36">
	<g>
		<g>
			<g>
				<path class="st18" d="M225.663,47.145H119.349c0.978,2.269,1.525,4.768,1.525,7.396c0,10.332-8.376,18.708-18.707,18.708
					s-18.707-8.376-18.707-18.708c0-2.628,0.547-5.127,1.525-7.396H30.337c-4.553,0-8.279,3.725-8.279,8.279V192.16
					c0,4.553,3.725,8.279,8.279,8.279h195.325c4.553,0,8.279-3.725,8.279-8.279V55.423C233.941,50.87,230.216,47.145,225.663,47.145
					z"/>
			</g>
		</g>
		<g>
			<g>
				<path class="st9" d="M228.135,59.097H120.292c-2.037,8.125-9.368,14.151-18.125,14.151s-16.088-6.026-18.125-14.151H27.865
					c-3.194,0-5.806,2.613-5.806,5.806v117.084c0,3.194,2.613,5.806,5.806,5.806h200.27c3.194,0,5.806-2.613,5.806-5.806V64.903
					C233.941,61.71,231.329,59.097,228.135,59.097z"/>
			</g>
		</g>
		<g>
			<g>
				<path class="st3" d="M22.058,175.842v6.146c0,3.193,2.613,5.806,5.806,5.806h200.27c3.194,0,5.806-2.613,5.806-5.806v-6.146
					H22.058z"/>
			</g>
		</g>
		<g>
			<g>
				<path class="st4" d="M22.058,175.842v6.146c0,3.193,2.613,5.806,5.806,5.806h13.752v-11.952H22.058z"/>
			</g>
		</g>
		<g>
			<g>
				<path d="M225.663,44.645H120.438c-1.381,0-2.5,1.119-2.5,2.5s1.119,2.5,2.5,2.5h105.225c3.187,0,5.779,2.592,5.779,5.779V192.16
					c0,3.187-2.592,5.779-5.779,5.779c-1.381,0-2.5,1.119-2.5,2.5s1.119,2.5,2.5,2.5c5.943,0,10.779-4.835,10.779-10.779V55.423
					C236.441,49.48,231.606,44.645,225.663,44.645z"/>
			</g>
		</g>
		<g>
			<g>
				<path d="M84.417,44.645H30.337c-5.943,0-10.779,4.835-10.779,10.779V192.16c0,5.943,4.835,10.779,10.779,10.779
					c1.381,0,2.5-1.119,2.5-2.5s-1.119-2.5-2.5-2.5c-3.187,0-5.779-2.592-5.779-5.779V55.423c0-3.187,2.592-5.779,5.779-5.779
					h54.079c1.381,0,2.5-1.119,2.5-2.5S85.797,44.645,84.417,44.645z"/>
			</g>
		</g>
		<g>
			<g>
				<path d="M228.135,56.597H121.208c-1.381,0-2.5,1.119-2.5,2.5s1.119,2.5,2.5,2.5h106.927c1.823,0,3.307,1.483,3.307,3.306
					c0,1.381,1.119,2.5,2.5,2.5s2.5-1.119,2.5-2.5C236.441,60.323,232.715,56.597,228.135,56.597z"/>
			</g>
		</g>
		<g>
			<g>
				<path d="M233.941,179.487c-1.381,0-2.5,1.119-2.5,2.5c0,1.823-1.483,3.307-3.307,3.307H27.865c-1.823,0-3.306-1.483-3.306-3.307
					c0-1.381-1.119-2.5-2.5-2.5s-2.5,1.119-2.5,2.5c0,4.58,3.726,8.307,8.306,8.307h200.27c4.58,0,8.307-3.727,8.307-8.307
					C236.441,180.606,235.322,179.487,233.941,179.487z"/>
			</g>
		</g>
		<g>
			<g>
				<path d="M83.063,56.597H27.865c-4.58,0-8.306,3.726-8.306,8.306c0,1.381,1.119,2.5,2.5,2.5s2.5-1.119,2.5-2.5
					c0-1.823,1.483-3.306,3.306-3.306h55.199c1.381,0,2.5-1.119,2.5-2.5S84.444,56.597,83.063,56.597z"/>
			</g>
		</g>
		<g>
			<g>
				<circle class="st5" cx="92.833" cy="136.041" r="27.837"/>
			</g>
		</g>
		<g>
			<g>
				
					<ellipse transform="matrix(0.9239 -0.3827 0.3827 0.9239 -24.8636 71.0833)" class="st19" cx="166.248" cy="98.041" rx="24.547" ry="24.547"/>
			</g>
		</g>
		<g>
			<g>
				<circle class="st1" cx="102.167" cy="54.541" r="18.707"/>
			</g>
		</g>
		<g>
			<g>
				<path class="st23" d="M92.833,122.122c-4.542,0-8.224,3.682-8.224,8.224c0,4.542,3.682,8.225,8.224,8.225
					s8.224-3.682,8.224-8.225C101.058,125.804,97.376,122.122,92.833,122.122z"/>
			</g>
		</g>
		<g>
			<g>
				<path class="st3" d="M98.878,140.068h-12.09c-6.011,0-10.929,4.918-10.929,10.928v7.101c4.699,3.621,10.583,5.781,16.974,5.781
					c6.391,0,12.275-2.159,16.974-5.781v-7.101C109.807,144.986,104.889,140.068,98.878,140.068z"/>
			</g>
		</g>
		<g>
			<g>
				<circle class="st23" cx="166.248" cy="93.02" r="7.253"/>
			</g>
		</g>
		<g>
			<g>
				<path class="st3" d="M171.579,101.592h-10.661c-5.3,0-9.637,4.337-9.637,9.637v6.261c4.143,3.193,9.332,5.097,14.968,5.097
					c5.636,0,10.824-1.904,14.968-5.097v-6.261C181.216,105.929,176.879,101.592,171.579,101.592z"/>
			</g>
		</g>
		<g>
			<g>
				<circle class="st23" cx="102.167" cy="50.714" r="5.527"/>
			</g>
		</g>
		<g>
			<g>
				<path class="st3" d="M106.229,57.247h-8.125c-4.039,0-7.344,3.305-7.344,7.344v4.772c3.158,2.434,7.112,3.885,11.407,3.885
					s8.249-1.451,11.407-3.885v-4.772C113.574,60.552,110.269,57.247,106.229,57.247z"/>
			</g>
		</g>
		<g>
			<g>
				<path class="st8" d="M250.528,200.439H5.472c-1.641,0-2.972,1.331-2.972,2.972c0,8.26,6.696,17.13,14.956,17.13h221.087
					c8.26,0,14.956-8.869,14.956-17.13C253.5,201.77,252.169,200.439,250.528,200.439z"/>
			</g>
		</g>
		<g>
			<g>
				<path class="st2" d="M90.513,200.439v1.939c0,4.03,3.267,7.297,7.297,7.297h60.38c4.03,0,7.297-3.267,7.297-7.297v-1.939H90.513
					z"/>
			</g>
		</g>
		<g>
			<g>
				<g>
					<path d="M250.528,197.939H5.472c-3.018,0-5.472,2.455-5.472,5.472c0,9.266,7.465,19.629,17.457,19.629h221.087
						c9.991,0,17.457-10.363,17.457-19.629C256,200.394,253.545,197.939,250.528,197.939z M238.543,218.041H17.457
						C10.441,218.041,5,210.176,5,203.411c0-0.26,0.212-0.472,0.472-0.472h245.056c0.26,0,0.472,0.212,0.472,0.472
						C251,210.176,245.559,218.041,238.543,218.041z"/>
				</g>
			</g>
		</g>
		<g>
			<g>
				<path d="M165.487,198.344c-1.381,0-2.5,1.119-2.5,2.5v1.534c0,2.645-2.152,4.797-4.797,4.797H97.81
					c-2.645,0-4.797-2.152-4.797-4.797V201c0-1.381-1.119-2.5-2.5-2.5s-2.5,1.119-2.5,2.5v1.378c0,5.402,4.395,9.797,9.797,9.797
					h60.38c5.402,0,9.797-4.395,9.797-9.797v-1.534C167.987,199.463,166.868,198.344,165.487,198.344z"/>
			</g>
		</g>
		<g>
			<g>
				<path d="M233.292,173.341h-210.5c-1.381,0-2.5,1.119-2.5,2.5s1.119,2.5,2.5,2.5h210.5c1.381,0,2.5-1.119,2.5-2.5
					S234.673,173.341,233.292,173.341z"/>
			</g>
		</g>
		<g>
			<g>
				<path d="M41.617,174c-1.381,0-2.5,1.119-2.5,2.5v10.583c0,1.381,1.119,2.5,2.5,2.5s2.5-1.119,2.5-2.5V176.5
					C44.117,175.119,42.998,174,41.617,174z"/>
			</g>
		</g>
		<g>
			<g>
				<path d="M146.72,81.752l-27.003-18.565c-1.14-0.782-2.695-0.493-3.477,0.644c-0.782,1.138-0.494,2.694,0.644,3.477
					l27.003,18.565c0.433,0.297,0.926,0.44,1.414,0.44c0.796,0,1.578-0.378,2.063-1.083
					C148.146,84.091,147.857,82.534,146.72,81.752z"/>
			</g>
		</g>
		<g>
			<g>
				<path d="M146.413,108.236c-0.638-1.225-2.149-1.701-3.372-1.063l-26.187,13.632c-1.225,0.637-1.701,2.147-1.063,3.372
					c0.445,0.856,1.317,1.346,2.219,1.346c0.389,0,0.784-0.091,1.152-0.283l26.187-13.632
					C146.575,110.971,147.051,109.461,146.413,108.236z"/>
			</g>
		</g>
		<g>
			<g>
				<g>
					<path d="M92.833,105.704c-16.728,0-30.337,13.609-30.337,30.336c0,16.728,13.609,30.337,30.337,30.337
						c16.728,0,30.336-13.609,30.336-30.337C123.17,119.313,109.561,105.704,92.833,105.704z M92.833,161.377
						c-13.971,0-25.337-11.366-25.337-25.337s11.366-25.336,25.337-25.336s25.336,11.366,25.336,25.336
						S106.804,161.377,92.833,161.377z"/>
				</g>
			</g>
		</g>
		<g>
			<g>
				<g>
					<path d="M166.248,70.994c-14.914,0-27.047,12.133-27.047,27.047c0,14.914,12.133,27.047,27.047,27.047
						c14.914,0,27.047-12.133,27.047-27.047C193.295,83.127,181.162,70.994,166.248,70.994z M166.248,120.088
						c-12.157,0-22.047-9.891-22.047-22.047s9.89-22.047,22.047-22.047s22.047,9.89,22.047,22.047S178.405,120.088,166.248,120.088z
						"/>
				</g>
			</g>
		</g>
		<g>
			<g>
				<g>
					<path d="M102.167,33.333c-11.694,0-21.208,9.514-21.208,21.208s9.514,21.208,21.208,21.208s21.208-9.514,21.208-21.208
						S113.86,33.333,102.167,33.333z M102.167,70.748c-8.937,0-16.208-7.271-16.208-16.208s7.271-16.208,16.208-16.208
						s16.208,7.271,16.208,16.208S111.104,70.748,102.167,70.748z"/>
				</g>
			</g>
		</g>
		<g>
			<g>
				<g>
					<path d="M92.833,119.622c-5.914,0-10.725,4.811-10.725,10.725s4.811,10.725,10.725,10.725c5.913,0,10.724-4.811,10.724-10.725
						S98.747,119.622,92.833,119.622z M92.833,136.071c-3.157,0-5.725-2.568-5.725-5.725s2.568-5.725,5.725-5.725
						c3.156,0,5.724,2.568,5.724,5.725S95.99,136.071,92.833,136.071z"/>
				</g>
			</g>
		</g>
		<g>
			<g>
				<path d="M98.878,137.568h-12.09c-7.404,0-13.428,6.024-13.428,13.429v6.253c0,1.381,1.119,2.5,2.5,2.5s2.5-1.119,2.5-2.5v-6.253
					c0-4.647,3.781-8.429,8.428-8.429h12.09c4.647,0,8.429,3.781,8.429,8.429v6.42c0,1.381,1.119,2.5,2.5,2.5s2.5-1.119,2.5-2.5
					v-6.42C112.307,143.592,106.283,137.568,98.878,137.568z"/>
			</g>
		</g>
		<g>
			<g>
				<g>
					<path d="M166.248,83.267c-5.377,0-9.752,4.375-9.752,9.752s4.375,9.752,9.752,9.752c5.378,0,9.753-4.375,9.753-9.752
						S171.626,83.267,166.248,83.267z M166.248,97.772c-2.621,0-4.752-2.132-4.752-4.752s2.132-4.752,4.752-4.752
						s4.753,2.132,4.753,4.752S168.869,97.772,166.248,97.772z"/>
				</g>
			</g>
		</g>
		<g>
			<g>
				<path d="M171.579,99.092h-10.662c-6.692,0-12.137,5.445-12.137,12.137v5.615c0,1.381,1.119,2.5,2.5,2.5s2.5-1.119,2.5-2.5
					v-5.615c0-3.936,3.202-7.137,7.137-7.137h10.662c3.935,0,7.137,3.202,7.137,7.137v5.646c0,1.381,1.119,2.5,2.5,2.5
					s2.5-1.119,2.5-2.5v-5.646C183.716,104.537,178.271,99.092,171.579,99.092z"/>
			</g>
		</g>
		<g>
			<g>
				<g>
					<path d="M102.167,42.687c-4.426,0-8.027,3.601-8.027,8.027c0,4.426,3.601,8.027,8.027,8.027c4.426,0,8.027-3.601,8.027-8.027
						C110.194,46.288,106.593,42.687,102.167,42.687z M102.167,53.741c-1.669,0-3.027-1.358-3.027-3.027
						c0-1.669,1.358-3.027,3.027-3.027c1.669,0,3.027,1.358,3.027,3.027C105.194,52.383,103.836,53.741,102.167,53.741z"/>
				</g>
			</g>
		</g>
		<g>
			<g>
				<path d="M106.229,54.747h-8.125c-5.428,0-9.844,4.416-9.844,9.844v4.366c0,1.381,1.119,2.5,2.5,2.5s2.5-1.119,2.5-2.5v-4.366
					c0-2.671,2.173-4.844,4.844-4.844h8.125c2.671,0,4.845,2.173,4.845,4.844v4.366c0,1.381,1.119,2.5,2.5,2.5s2.5-1.119,2.5-2.5
					v-4.366C116.074,59.163,111.657,54.747,106.229,54.747z"/>
			</g>
		</g>
		<g>
			<g>
				<path class="st5" d="M131.983,18.738c-4.498-0.838-8.043-4.31-8.898-8.716c-0.043-0.221-0.352-0.221-0.395,0
					c-0.855,4.406-4.4,7.879-8.898,8.716c-0.226,0.042-0.226,0.345,0,0.387c4.498,0.838,8.043,4.31,8.898,8.717
					c0.043,0.221,0.352,0.221,0.395,0c0.855-4.406,4.4-7.879,8.898-8.717C132.209,19.083,132.209,18.78,131.983,18.738z"/>
			</g>
		</g>
		<g>
			<g>
				<path class="st1" d="M255.881,108.796c-3.156-0.588-5.643-3.024-6.243-6.116c-0.03-0.155-0.247-0.155-0.277,0
					c-0.6,3.091-3.087,5.528-6.243,6.116c-0.158,0.03-0.158,0.242,0,0.271c3.156,0.588,5.643,3.024,6.243,6.116
					c0.03,0.155,0.247,0.155,0.277,0c0.6-3.092,3.087-5.528,6.243-6.116C256.04,109.037,256.04,108.825,255.881,108.796z"/>
			</g>
		</g>
		<g>
			<g>
				<path class="st7" d="M101.694,234.343h-2.329v-2.33c0-1.744-1.413-3.157-3.157-3.157s-3.157,1.413-3.157,3.157v2.33h-2.33
					c-1.744,0-3.157,1.414-3.157,3.157s1.413,3.157,3.157,3.157h2.33v2.33c0,1.744,1.413,3.157,3.157,3.157s3.157-1.413,3.157-3.157
					v-2.33h2.329c1.744,0,3.157-1.413,3.157-3.157S103.438,234.343,101.694,234.343z"/>
			</g>
		</g>
		<g>
			<g>
				<circle class="st6" cx="143.999" cy="31.478" r="3.377"/>
			</g>
		</g>
		<g>
			<g>
				<path class="st5" d="M67.999,229.101c-1.865,0-3.377,1.512-3.377,3.377c0,1.865,1.512,3.377,3.377,3.377
					c1.865,0,3.377-1.512,3.377-3.377C71.376,230.613,69.864,229.101,67.999,229.101z"/>
			</g>
		</g>
	</g>
</g>
<g id="Layer_37">
</g>
<g id="Layer_38">
</g>
<g id="Layer_39">
</g>
<g id="Layer_40">
</g>
<g id="Layer_41">
</g>
<g id="Layer_42">
</g>
<g id="Layer_43">
</g>
<g id="Layer_44">
</g>
<g id="Layer_45">
</g>
<g id="Layer_46">
</g>
<g id="Layer_47">
</g>
<g id="Layer_48">
</g>
<g id="Layer_49">
</g>
<g id="Layer_50">
</g>
<g id="Layer_51">
</g>
<g id="Layer_52">
</g>
<g id="Layer_53">
</g>
<g id="Layer_54">
</g>
<g id="Layer_55">
</g>
<g id="Layer_56">
</g>
<g id="Layer_57">
</g>
<g id="Layer_58">
</g>
<g id="Layer_59">
</g>
<g id="Layer_60">
</g>
<g id="Layer_61">
</g>
<g id="Layer_62">
</g>
<g id="Layer_63">
</g>
<g id="Layer_64">
</g>
<g id="Layer_65">
</g>
<g id="Layer_66">
</g>
<g id="Layer_67">
</g>
<g id="Layer_68">
</g>
<g id="Layer_69">
</g>
<g id="Layer_70">
</g>
<g id="Layer_71">
</g>
<g id="Layer_72">
</g>
<g id="Layer_73">
</g>
<g id="Layer_74">
</g>
<g id="Layer_75">
</g>
<g id="Layer_76">
</g>
<g id="Layer_77">
</g>
<g id="Layer_78">
</g>
<g id="Layer_79">
</g>
<g id="Layer_80">
</g>
<g id="Layer_81">
</g>
<g id="Layer_82">
</g>
<g id="Layer_83">
</g>
<g id="Layer_84">
</g>
<g id="Layer_85">
</g>
</svg>
