<?xml version="1.0" encoding="utf-8"?>
<!-- Generator: Adobe Illustrator 24.3.0, SVG Export Plug-In . SVG Version: 6.00 Build 0)  -->
<svg version="1.1" id="Layer_1" xmlns="http://www.w3.org/2000/svg" xmlns:xlink="http://www.w3.org/1999/xlink" x="0px" y="0px"
	 viewBox="0 0 300 300" enable-background="new 0 0 300 300" xml:space="preserve">
<g>
	<g>
		<g>
			<polygon fill="#FFC67B" points="112.861,118.887 103.786,100.472 29.369,100.472 29.369,118.887 29.369,271.109 270.631,271.109 
				270.631,118.887 			"/>
		</g>
		<g>
			<path fill="#E5E5E4" d="M79.337,68.967V46.617c0-9.792-7.937-17.726-17.727-17.726c-9.792,0-17.726,7.934-17.726,17.726v22.351
				H79.337z"/>
		</g>
		<g>
			<path fill="#EFEFEF" d="M67.241,29.82c-1.77-0.594-3.66-0.929-5.63-0.929c-9.792,0-17.726,7.934-17.726,17.726v22.351h11.263
				V46.617C55.148,38.797,60.214,32.174,67.241,29.82z"/>
		</g>
		<g>
			<path fill="#F4F4F4" d="M79.337,46.617v17.882v35.974h24.449l9.074,18.415h137.882v-72.27c0-9.792-7.94-17.726-17.729-17.726
				c-0.142,0-171.402,0-171.402,0C71.4,28.891,79.337,36.825,79.337,46.617z"/>
		</g>
		<g>
			<path fill="#F9F9F9" d="M90.934,46.617c0-9.792-7.937-17.726-17.727-17.726c-7.266,0-11.597,0-11.597,0
				c9.789,0,17.727,7.934,17.727,17.726v17.882v35.974h11.597V64.498V46.617z"/>
		</g>
		<g>
			<polygon fill="#FFDA88" points="42.535,80.058 40.942,100.472 79.337,100.472 79.337,80.058 			"/>
		</g>
		<g>
			<polygon fill="#FFDA88" points="259.817,98.472 250.742,98.472 250.742,118.887 262.841,118.887 			"/>
		</g>
		<g>
			<rect x="111.097" y="48.395" fill="#C1C1C1" width="39.978" height="8.936"/>
		</g>
		<g>
			<rect x="111.097" y="68.434" fill="#C1C1C1" width="104.86" height="8.936"/>
		</g>
		<g>
			<rect x="111.097" y="89.54" fill="#C1C1C1" width="104.86" height="8.938"/>
		</g>
		<g>
			<path fill="#F4F4F4" d="M203.114,167.806l-20.518-20.518h-31.382h-0.275h-31.382l-20.515,20.518c0,0,11.674,76.275,51.897,82.995
				v0.056c0.05-0.006,0.089-0.021,0.139-0.027c0.044,0.006,0.089,0.02,0.136,0.027v-0.056
				C191.437,244.081,203.114,167.806,203.114,167.806z"/>
		</g>
		<g>
			<path fill="#F9F9F9" d="M110.385,167.806l20.515-20.518h-11.343l-20.515,20.518c0,0,11.674,76.275,51.897,82.995v0.056
				c0.05-0.006,0.089-0.021,0.139-0.027c0.044,0.006,0.089,0.02,0.136,0.027v-0.056c1.917-0.319,3.746-0.845,5.533-1.462
				C120.993,236.945,110.385,167.806,110.385,167.806z"/>
		</g>
		<g>
			<g>
				<path fill="#FE6F80" d="M144.972,215.461c-1.161,0-2.322-0.443-3.208-1.329l-13.887-13.886c-1.772-1.773-1.772-4.644,0-6.416
					c1.773-1.773,4.644-1.773,6.416,0l10.678,10.678l28.115-28.109c1.772-1.772,4.644-1.772,6.416,0
					c1.772,1.772,1.772,4.643,0,6.416l-31.323,31.317C147.294,215.018,146.133,215.461,144.972,215.461z"/>
			</g>
		</g>
		<g>
			<rect x="29.369" y="100.472" fill="#FFD39F" width="14.515" height="170.637"/>
		</g>
		<g>
			<polygon fill="#FFE2A9" points="42.535,80.058 40.942,100.472 53.886,100.472 55.148,80.058 			"/>
		</g>
	</g>
	<g>
		<g>
			<path fill="#161616" d="M270.631,275.647H83.162c-2.506,0-4.537-2.032-4.537-4.537c0-2.505,2.031-4.537,4.537-4.537h182.931
				V123.424H112.861c-1.728,0-3.305-0.981-4.07-2.531l-7.826-15.883H33.906v161.563h27.704c2.506,0,4.537,2.032,4.537,4.537
				c0,2.505-2.031,4.537-4.537,4.537H29.369c-2.506,0-4.537-2.032-4.537-4.537V100.472c0-2.505,2.031-4.537,4.537-4.537h74.417
				c1.728,0,3.305,0.981,4.07,2.532l7.826,15.883h154.947c2.505,0,4.537,2.032,4.537,4.537v152.223
				C275.168,273.614,273.136,275.647,270.631,275.647z"/>
		</g>
		<g>
			<path fill="#161616" d="M79.337,73.505H43.885c-2.506,0-4.537-2.031-4.537-4.537V46.617c0-12.276,9.987-22.263,22.263-22.263
				c12.276,0,22.263,9.987,22.263,22.263v22.351C83.874,71.474,81.843,73.505,79.337,73.505z M48.422,64.43H74.8V46.617
				c0-7.272-5.917-13.189-13.189-13.189s-13.189,5.917-13.189,13.189V64.43z"/>
		</g>
		<g>
			<path fill="#161616" d="M250.742,123.424H112.861c-1.728,0-3.305-0.981-4.07-2.531l-7.826-15.883H79.337
				c-2.506,0-4.537-2.032-4.537-4.537V46.617c0-7.272-5.917-13.189-13.189-13.189c-2.506,0-4.537-2.031-4.537-4.537
				c0-2.506,2.031-4.537,4.537-4.537h171.402c12.276,0,22.266,9.987,22.266,22.263v19.977c0,2.506-2.032,4.537-4.537,4.537
				s-4.537-2.031-4.537-4.537V46.617c0-7.272-5.917-13.189-13.192-13.189H79.537c2.726,3.694,4.338,8.256,4.338,13.189v49.318
				h19.912c1.728,0,3.305,0.981,4.07,2.532l7.826,15.883h130.522V88.146c0-2.505,2.032-4.537,4.537-4.537s4.537,2.032,4.537,4.537
				v30.741C255.279,121.392,253.247,123.424,250.742,123.424z"/>
		</g>
		<g>
			<path fill="#161616" d="M79.337,105.009H40.944c-1.264,0-2.472-0.529-3.331-1.456s-1.291-2.174-1.193-3.432l1.591-20.414
				c0.185-2.363,2.155-4.186,4.524-4.186h36.803c2.506,0,4.537,2.032,4.537,4.537v20.414
				C83.874,102.977,81.843,105.009,79.337,105.009z M45.849,95.935H74.8v-11.34H46.732L45.849,95.935z"/>
		</g>
		<g>
			<path fill="#161616" d="M262.841,123.424h-12.099c-2.505,0-4.537-2.032-4.537-4.537V98.472c0-2.505,2.032-4.537,4.537-4.537
				h9.074c2.248,0,4.159,1.648,4.487,3.873l3.025,20.414c0.195,1.306-0.189,2.629-1.052,3.627
				C265.414,122.851,264.162,123.424,262.841,123.424z M255.279,114.35h2.304l-1.681-11.34h-0.623V114.35z"/>
		</g>
		<g>
			<rect x="111.097" y="48.395" fill="#161616" width="39.979" height="8.936"/>
		</g>
		<g>
			<rect x="111.097" y="68.434" fill="#161616" width="104.86" height="8.936"/>
		</g>
		<g>
			<rect x="111.097" y="89.54" fill="#161616" width="104.86" height="8.938"/>
		</g>
		<g>
			<path fill="#161616" d="M150.939,255.395c-0.505,0-1.004-0.086-1.477-0.248c-42.378-7.913-54.411-83.427-54.905-86.655
				c-0.219-1.427,0.255-2.871,1.277-3.893l20.515-20.518c0.851-0.851,2.004-1.329,3.208-1.329h63.039
				c1.202,0,2.357,0.479,3.208,1.329l20.518,20.518c1.022,1.022,1.495,2.467,1.276,3.893c-0.493,3.232-12.545,78.863-55.007,86.676
				c-0.478,0.157-0.984,0.23-1.498,0.224C151.041,255.395,150.991,255.395,150.939,255.395z M103.916,169.348
				c2.266,12.232,14.753,70.751,47.16,76.869c32.406-6.118,44.898-64.634,47.163-76.869l-17.522-17.522h-59.28L103.916,169.348z"/>
		</g>
		<g>
			<g>
				<path fill="#161616" d="M144.972,215.461c-1.161,0-2.322-0.443-3.208-1.329l-13.887-13.886c-1.772-1.773-1.772-4.644,0-6.416
					c1.773-1.773,4.644-1.773,6.416,0l10.678,10.678l28.115-28.109c1.772-1.772,4.644-1.772,6.416,0
					c1.772,1.772,1.772,4.643,0,6.416l-31.323,31.317C147.294,215.018,146.133,215.461,144.972,215.461z"/>
			</g>
		</g>
	</g>
</g>
</svg>
